<?xml version="1.0" standalone="no"?>
<!DOCTYPE svg PUBLIC "-//W3C//DTD SVG 20010904//EN"
 "http://www.w3.org/TR/2001/REC-SVG-20010904/DTD/svg10.dtd">
<svg version="1.0" xmlns="http://www.w3.org/2000/svg"
 width="1024.000000pt" height="1024.000000pt" viewBox="0 0 1024.000000 1024.000000"
 preserveAspectRatio="xMidYMid meet">

<g transform="translate(0.000000,1024.000000) scale(0.100000,-0.100000)"
fill="#000000" stroke="none">
<path d="M0 5120 l0 -5120 5120 0 5120 0 0 5120 0 5120 -5120 0 -5120 0 0
-5120z m2884 700 c23 -8 26 -15 26 -57 0 -48 -15 -199 -25 -260 -4 -20 -12
-33 -20 -33 -8 0 -15 2 -15 4 0 3 -6 35 -14 73 -8 37 -16 110 -17 162 -3 82
-1 95 16 107 22 17 18 16 49 4z m218 -67 c10 -9 18 -21 18 -27 0 -6 -28 -66
-62 -133 -44 -87 -68 -123 -80 -123 -13 0 -18 8 -18 28 1 51 48 254 61 263 22
14 61 10 81 -8z m-388 -11 c35 -108 56 -255 38 -266 -16 -10 -59 49 -102 141
-22 46 -40 87 -40 91 0 4 7 18 16 30 19 28 80 31 88 4z m580 -21 c16 -18 16
-20 -1 -48 -34 -56 -118 -158 -165 -202 -38 -35 -49 -40 -54 -28 -9 24 93 209
154 280 20 22 45 22 66 -2z m-726 -137 c50 -65 112 -164 112 -178 0 -27 -116
51 -186 126 -81 85 -91 118 -42 137 32 12 53 -3 116 -85z m862 -16 c21 -23 24
-36 12 -53 -12 -17 -102 -71 -182 -109 -74 -36 -100 -43 -100 -28 1 14 55 77
105 123 106 96 129 106 165 67z m2450 -47 c40 -11 92 -32 114 -48 46 -33 86
-95 86 -135 0 -27 -2 -28 -55 -28 -47 0 -55 3 -55 19 0 26 -34 66 -73 84 -89
42 -272 42 -346 0 -51 -30 -70 -105 -36 -143 24 -27 94 -46 234 -65 131 -18
240 -47 289 -77 90 -55 97 -210 14 -294 -133 -132 -494 -123 -634 17 -43 43
-79 121 -64 137 3 3 26 8 51 12 l45 7 19 -42 c37 -83 132 -125 280 -125 155 0
251 50 251 131 0 60 -56 90 -216 113 -207 31 -313 66 -363 120 -26 28 -39 106
-27 168 7 37 63 101 110 125 89 46 252 56 376 24z m-1980 -331 l0 -330 240 0
240 0 0 -50 0 -50 -294 0 c-226 0 -295 3 -298 13 -3 6 -4 32 -4 57 1 25 3 190
4 368 l2 322 55 0 55 0 0 -330z m1295 292 c1 -18 -2 -37 -6 -43 -4 -7 -104
-11 -280 -12 l-274 -2 0 -110 0 -110 248 -3 247 -2 0 -50 0 -50 -247 -2 -248
-3 0 -115 0 -115 288 -5 c158 -3 287 -8 287 -12 0 -5 0 -26 0 -48 l0 -40 -342
2 -343 3 -3 378 -2 377 337 -2 338 -3 0 -33z m1780 -12 l0 -45 -275 0 -275 0
-3 -112 -3 -113 246 0 245 0 0 -50 0 -50 -242 -2 -243 -3 0 -115 0 -115 283
-3 283 -2 -3 -48 -3 -47 -335 0 -335 0 -3 378 -2 377 332 -2 333 -3 0 -45z
m850 23 c75 -40 115 -103 115 -182 0 -89 -44 -170 -108 -199 -21 -9 -39 -17
-41 -19 -1 -1 10 -19 27 -40 16 -21 38 -60 47 -88 10 -27 33 -83 52 -123 18
-40 33 -75 33 -78 0 -3 -28 -4 -61 -2 l-62 3 -41 110 c-53 139 -65 162 -85
171 -9 4 -103 10 -208 12 l-193 4 0 -151 0 -151 -55 0 -55 0 0 381 0 381 298
-4 c279 -4 299 -5 337 -25z m-5402 -49 c29 -16 150 -104 172 -126 26 -26 -205
40 -236 68 -19 17 -16 41 9 62 20 15 17 15 55 -4z m1097 -33 c0 -5 2 -16 5
-24 12 -30 -29 -56 -126 -82 -186 -48 -256 -31 -129 32 125 63 250 100 250 74z
m-1135 -167 c50 -8 114 -22 143 -31 52 -14 53 -15 36 -34 -15 -17 -32 -19
-148 -19 -165 0 -176 3 -176 44 0 35 15 56 40 56 8 0 56 -7 105 -16z m1185
-24 c24 -24 24 -30 6 -56 -13 -17 -25 -19 -133 -16 -123 3 -219 19 -216 37 2
10 82 26 213 44 100 13 109 12 130 -9z m-205 -140 c96 -13 144 -25 170 -44 16
-12 18 -19 10 -43 -15 -40 -44 -40 -160 3 -55 20 -114 41 -132 47 -56 18 -55
62 0 52 18 -2 68 -9 112 -15z m-785 -9 c0 -19 -228 -101 -280 -101 -42 0 -57
60 -21 80 45 24 301 42 301 21z m-6 -148 c-98 -83 -174 -114 -181 -73 -5 27
13 40 113 84 107 46 131 43 68 -11z m753 2 c59 -30 121 -65 138 -79 26 -21 29
-27 20 -52 -6 -16 -18 -30 -28 -32 -42 -8 -277 165 -277 204 0 25 37 15 147
-41z m-647 -37 c0 -16 -117 -176 -162 -222 -36 -36 -40 -37 -61 -23 -43 28
-34 52 50 139 43 44 92 89 108 99 34 21 65 25 65 7z m518 -66 c97 -114 123
-154 120 -187 -2 -24 -8 -31 -29 -33 -21 -2 -33 5 -56 35 -86 110 -159 235
-148 253 12 19 67 -15 113 -68z m-428 -43 c-6 -30 -25 -96 -42 -146 -26 -82
-32 -93 -53 -93 -30 0 -48 23 -40 52 14 44 98 223 113 241 24 28 33 5 22 -54z
m137 -15 c6 -38 12 -117 12 -176 1 -104 0 -108 -24 -124 -23 -15 -27 -15 -51
1 -26 16 -26 19 -19 93 8 92 31 240 40 265 14 34 30 11 42 -59z m127 32 c38
-50 117 -223 110 -241 -7 -17 -47 -30 -69 -22 -8 4 -24 39 -36 79 -12 40 -27
92 -35 116 -16 48 -18 102 -5 102 5 0 20 -15 35 -34z"/>
<path d="M7308 5424 c-5 -4 -8 -65 -8 -136 l0 -128 213 0 c182 0 217 3 247 18
94 47 90 196 -6 231 -43 16 -433 29 -446 15z"/>
</g>
</svg>
