<svg xmlns="http://www.w3.org/2000/svg" xmlns:xlink="http://www.w3.org/1999/xlink" width="100" height="100" viewBox="0 0 100 100">
  <defs>
    <clipPath id="clip-kbank">
      <rect width="100" height="100"/>
    </clipPath>
  </defs>
  <g id="kbank" clip-path="url(#clip-kbank)">
    <rect width="100" height="100" fill="#08a94d"/>
    <g id="kbank-2" data-name="kbank" transform="translate(6 6)">
      <path id="Path_586" data-name="Path 586" d="M44,0A44,44,0,1,0,88,44,44.041,44.041,0,0,0,44,0ZM7.013,44" fill="#fff"/>
      <g id="Group_22" data-name="Group 22">
        <g id="Group_21" data-name="Group 21" transform="translate(15.4 63.388)">
          <path id="Path_72" data-name="Path 72" d="M71.763,94.125A13.744,13.744,0,0,0,64.956,92.2a15.128,15.128,0,0,0-6.738,1.925,16.77,16.77,0,0,1-7.288,1.994,14.759,14.759,0,0,1-6.6-1.856,16.812,16.812,0,0,0-7.356-1.994,16.648,16.648,0,0,0-6.806,1.856,17.044,17.044,0,0,1-7.288,1.994H22.4c.275.344.619.756.894,1.1a17.781,17.781,0,0,0,7.288-2.062c2.063-.894,3.919-1.788,6.325-1.788a15.721,15.721,0,0,1,6.875,1.925,16.121,16.121,0,0,0,7.081,1.994,17.753,17.753,0,0,0,7.769-2.131,14.989,14.989,0,0,1,6.325-1.788,12.7,12.7,0,0,1,6.325,1.856,14.99,14.99,0,0,0,7.562,2.063c.344-.344.619-.756.963-1.169-.275,0-.619.069-.894.069a16.036,16.036,0,0,1-7.15-2.062" transform="translate(-22.4 -92.2)" fill="#99877d"/>
          <path id="Path_73" data-name="Path 73" d="M65.769,95.2a15.128,15.128,0,0,0-6.738,1.925,16.77,16.77,0,0,1-7.287,1.994,14.759,14.759,0,0,1-6.6-1.856,16.812,16.812,0,0,0-7.356-1.994,16.648,16.648,0,0,0-6.806,1.856A19.716,19.716,0,0,1,25,99.05a12.706,12.706,0,0,0,.963.962,20.685,20.685,0,0,0,5.5-1.856c2.063-.894,3.919-1.787,6.325-1.787a15.721,15.721,0,0,1,6.875,1.925,16.121,16.121,0,0,0,7.081,1.994,17.753,17.753,0,0,0,7.769-2.131,14.059,14.059,0,0,1,6.325-1.787,12.7,12.7,0,0,1,6.325,1.856,17.356,17.356,0,0,0,5.706,1.994,13.2,13.2,0,0,0,.963-1.031,14.93,14.93,0,0,1-6.188-1.925A13.11,13.11,0,0,0,65.769,95.2" transform="translate(-23.212 -93.137)" fill="#99877d"/>
          <path id="Path_74" data-name="Path 74" d="M66.55,98.2a15.128,15.128,0,0,0-6.737,1.925,16.77,16.77,0,0,1-7.288,1.994,14.758,14.758,0,0,1-6.6-1.856,16.812,16.812,0,0,0-7.356-1.994,16.648,16.648,0,0,0-6.806,1.856,19.544,19.544,0,0,1-4.263,1.581c.344.275.619.619.963.894,1.306-.412,2.544-.963,3.713-1.444,2.063-.894,3.919-1.788,6.325-1.788a15.721,15.721,0,0,1,6.875,1.925,16.121,16.121,0,0,0,7.081,1.994,17.753,17.753,0,0,0,7.769-2.131,14.989,14.989,0,0,1,6.325-1.787,13.432,13.432,0,0,1,6.325,1.787,18,18,0,0,0,3.85,1.581c.344-.275.688-.619,1.031-.894a15.408,15.408,0,0,1-4.331-1.719c-1.994-.894-3.919-1.925-6.875-1.925" transform="translate(-23.994 -94.075)" fill="#99877d"/>
          <path id="Path_75" data-name="Path 75" d="M67.363,101.3a15.128,15.128,0,0,0-6.738,1.925,16.77,16.77,0,0,1-7.287,1.994,14.759,14.759,0,0,1-6.6-1.856,16.812,16.812,0,0,0-7.356-1.994,16.648,16.648,0,0,0-6.806,1.856,26.669,26.669,0,0,1-2.475,1.031l1.031.825c.688-.275,1.306-.55,1.925-.825,2.063-.894,3.919-1.787,6.325-1.787a15.721,15.721,0,0,1,6.875,1.925,16.121,16.121,0,0,0,7.081,1.994,17.753,17.753,0,0,0,7.769-2.131,14.059,14.059,0,0,1,6.325-1.787,12.7,12.7,0,0,1,6.325,1.856,17.814,17.814,0,0,0,1.994.962l1.031-.825c-.894-.344-1.719-.756-2.544-1.169a13.749,13.749,0,0,0-6.875-1.994" transform="translate(-24.806 -95.044)" fill="#99877d"/>
          <path id="Path_76" data-name="Path 76" d="M68.175,104.3a15.128,15.128,0,0,0-6.737,1.925,16.77,16.77,0,0,1-7.288,1.994,14.758,14.758,0,0,1-6.6-1.856,15.932,15.932,0,0,0-7.356-1.994,16.648,16.648,0,0,0-6.806,1.856c-.206.137-.481.206-.687.344.344.275.688.481,1.031.756.069,0,.069,0,.138-.069,2.062-.894,3.919-1.787,6.325-1.787a15.721,15.721,0,0,1,6.875,1.925,16.121,16.121,0,0,0,7.081,1.994,17.753,17.753,0,0,0,7.769-2.131,14.059,14.059,0,0,1,6.325-1.787,12.7,12.7,0,0,1,6.325,1.856c.069.069.137.069.275.137.344-.206.687-.481,1.031-.687a7.5,7.5,0,0,1-.756-.413c-2.062-1.031-3.988-2.062-6.944-2.062" transform="translate(-25.619 -95.981)" fill="#99877d"/>
          <path id="Path_77" data-name="Path 77" d="M62.081,109.256a16.77,16.77,0,0,1-7.288,1.994,14.759,14.759,0,0,1-6.6-1.856,16.812,16.812,0,0,0-7.356-1.994,13.628,13.628,0,0,0-5.638,1.375,10.349,10.349,0,0,0,1.169.688,11.8,11.8,0,0,1,4.469-.962,15.721,15.721,0,0,1,6.875,1.925,16.121,16.121,0,0,0,7.081,1.994,17.753,17.753,0,0,0,7.769-2.131,14.989,14.989,0,0,1,6.325-1.787,10.442,10.442,0,0,1,4.675,1.031c.413-.206.756-.481,1.1-.688a12.75,12.75,0,0,0-5.775-1.444,16.952,16.952,0,0,0-6.806,1.856" transform="translate(-26.4 -96.95)" fill="#99877d"/>
        </g>
        <path id="Path_78" data-name="Path 78" d="M44,0A44,44,0,1,0,88,44,44.041,44.041,0,0,0,44,0Zm0,80.988A36.988,36.988,0,1,1,80.988,44,37,37,0,0,1,44,80.988" fill="#ec1b2e"/>
      </g>
      <g id="Group_23" data-name="Group 23" transform="translate(22.825 14.438)">
        <path id="Path_79" data-name="Path 79" d="M85.556,48.044a7.218,7.218,0,0,1-2.406,3.438c-1.719,1.375-13.131,8.319-14.438,9.9S67.2,65.369,67.2,67.156V80.563h1.787V77.125a7.232,7.232,0,0,1,2.063-4.469c2.338-2.475,7.769-5.5,11.413-8.112,2.956-2.2,3.162-5.156,3.162-7.7V47.7Z" transform="translate(-43.825 -29.344)" fill="#00a84f"/>
        <path id="Path_80" data-name="Path 80" d="M65.894,52.213c1.238-1.581,13.063-8.731,14.713-10.106s3.644-3.437,3.644-6.119V21c0,2.131-1.169,3.712-2.681,5.706-1.719,2.269-9.625,6.531-13.544,9.281s-5.225,5.431-5.225,8.8V72.15h1.719V57.85C64.45,56.063,64.588,53.794,65.894,52.213Z" transform="translate(-42.45 -21)" fill="#00a84f"/>
        <path id="Path_81" data-name="Path 81" d="M47.706,36.737c-3.575-2.75-10.863-8.594-11.756-9.763S33.2,23.744,33.2,21.2V35.156a10.53,10.53,0,0,0,4.4,8.113c3.438,2.544,8.319,6.187,9.831,7.7a11.112,11.112,0,0,1,2.819,7.906V72.35h1.719V45.606C52.106,41.206,51.281,39.488,47.706,36.737Z" transform="translate(-33.2 -21.063)" fill="#00a84f"/>
      </g>
    </g>
  </g>
</svg>
